<?xml version="1.0" encoding="utf-8"?>
<!-- Generator: Adobe Illustrator 25.2.0, SVG Export Plug-In . SVG Version: 6.00 Build 0)  -->
<svg version="1.1" id="Слой_1" xmlns="http://www.w3.org/2000/svg" xmlns:xlink="http://www.w3.org/1999/xlink" x="0px" y="0px"
	 viewBox="0 0 595.3 841.9" style="enable-background:new 0 0 595.3 841.9;" xml:space="preserve">
<style type="text/css">
	.st0{fill:#010202;}
</style>
<path d="M-482.5-797.7v100.9c0,26.4-21.6,48.1-48.1,48.1h-41c-2,3.1-5.5,5.2-9.4,5.2c-6.2,0-11.2-5-11.2-11.2s5-11.2,11.2-11.2
	c4,0,7.4,2.1,9.4,5.2h38.7c21.1,0,38.3-17.2,38.3-38.3v-96.3c0-21.1-17.2-38.3-38.3-38.3h-96.3c-21.1,0-38.3,17.2-38.3,38.3v96.3
	c0,21.1,17.2,38.3,38.3,38.3h14.5l21.8-37.7c-3.9-2.1-7.3-5.4-9.7-9.9l-26.2-48.2c-7.9-14.6,1.2-32.2,16.7-34.9c1.7-2.4,4.6-4,7.8-4
	c3,0,5.7,1.4,7.5,3.6c1.3,1.6,2.1,3.7,2.1,6c0,2.4-0.8,4.5-2.3,6.2c-1.8,2.1-4.4,3.4-7.3,3.4c-2.6,0-4.9-1-6.6-2.7
	c-7.6,2.6-11.6,11.6-7.5,19.2l25.1,46.3c1.4,2.6,3.4,4.5,5.8,5.7c3.9,2,8.5,2.1,12.5,0.3c2.5-1.2,4.8-3.2,6.3-6l25.1-46.3
	c4.1-7.6,0.1-16.6-7.5-19.2c-1.7,1.7-4.1,2.7-6.6,2.7c-2.9,0-5.5-1.3-7.3-3.4c-1.4-1.7-2.3-3.8-2.3-6.2c0-2.3,0.8-4.3,2.1-6
	c1.8-2.2,4.4-3.6,7.5-3.6c3.2,0,6,1.6,7.8,4c15.6,2.8,24.7,20.3,16.7,34.9l-26.2,48.2c-4.6,8.5-12.9,12.8-21.3,12.9l-20,34.7
	l-5.2,9.1c-1.1,1.9-3.1,3-5.2,3h-20.2c-26.4,0-48.1-21.6-48.1-48.1v-100.9c0-26.4,21.6-48.1,48.1-48.1h100.9
	C-504.1-845.7-482.5-824.1-482.5-797.7z"/>
<g>
	<path d="M-381.2-695.4c-1.2-0.1-2.3-0.2-3.5-0.3c-2.6-0.2-5.2-0.6-7.7-1.6c-4.2-1.6-6.6-4.7-7.2-9.1c-0.3-2.2-0.3-4.4-0.3-6.6
		c-0.1-16.2-0.2-32.3-0.3-48.5c-0.1-12.9-0.2-25.9-0.3-38.8c-0.1-9.6-0.1-19.1-0.2-28.7c0-0.2,0-0.5,0-0.8c6.6,0,13.1,0,19.7,0
		c0,0.2,0,0.4,0,0.7c0.2,21.2,0.3,42.4,0.5,63.6c0.1,12.1,0.2,24.1,0.3,36.2c0,5.6,0,11.2,0.1,16.8c0,1.4,1,2.5,2.1,3.3
		c2,1.4,5.6,1.2,7.5-0.4c1.1-0.9,1.6-2,1.6-3.5c0-32.7,0-65.3,0-98c0-6,0-12,0-18c0-0.2,0-0.5,0-0.7c10,0,19.9,0,29.9,0
		c0,4,0,7.9,0,11.9c-3.4,0-6.7,0-10.2,0c0,0.3,0,0.5,0,0.8c0,35.4,0,70.9,0,106.3c0,2.2,0,4.3-0.7,6.4c-1.5,4.3-4.7,6.8-9.1,8.1
		c-2.5,0.7-5.1,0.9-7.7,0.9c-0.9,0-1.7,0.1-2.6,0.1C-373.2-695.4-377.2-695.4-381.2-695.4z"/>
	<path d="M-277.4-695.6c-19.1,0-38.2,0-57.3,0c0-5.1,0-10.1,0-15.2c4.3,0,8.5,0,12.8,0c0,1.3,0,2.6,0,3.9c0.3,0,0.5,0,0.7,0
		c3,0,5.9,0.2,8.9,0c4.8-0.4,9.1-2.2,12.2-6.2c1.6-2.2,2.1-4.7,2-7.4c0-0.5-0.1-1.1-0.2-1.6c0-0.5-0.2-0.6-0.7-0.6
		c-2.1,0-4.2,0-6.2,0c-4.7-0.1-9.4-0.3-14-1.3c-2.5-0.6-4.8-1.4-7-2.7c-4.1-2.4-6.3-6.1-7-10.7c-0.3-2.2-0.3-4.4-0.4-6.6
		c-0.1-8.7-0.3-17.3-0.3-26c-0.1-14.4,0-28.8,0-43.3c0-2,0.1-4.1,0.6-6c1.1-4.6,3.9-7.5,8.3-9.1c2-0.7,4-1.2,6-1.3
		c0.2,0,0.3-0.1,0.5-0.1c6.7,0,13.3,0,20,0c0.1,0,0.2,0.1,0.4,0.1c1.5,0.3,3.1,0.5,4.6,1c3.3,1,6.3,2.6,8.6,5.3
		c2.5,2.9,3.4,6.3,3.4,10c0,28.4,0,56.9,0,85.3c0,0.4,0.1,0.8,0,1.3c-0.1,1.6-0.1,3.2-0.4,4.8c-1.1,5.5-4.1,10-8.3,13.7
		c-0.6,0.5-1.2,1-1.9,1.6c5,0,9.9,0,14.8,0C-277.4-703.1-277.4-699.4-277.4-695.6z M-313.5-779.7c0,0-0.1,0-0.1,0
		c0.2,9.1,0.3,18.2,0.5,27.4c0,2.6,0.1,5.3,0.1,7.9c0.1,3.3,1.5,5.1,4.5,5.5c2.7,0.3,5-1,5.8-3.6c0.3-1.1,0.5-2.2,0.5-3.4
		c0-19.2,0-38.5,0-57.7c0-3.6,0-7.2,0-10.8c0-2.2-1.1-3.8-3.2-4.4c-1.6-0.5-3.3-0.4-4.9-0.1c-1.8,0.4-2.9,1.5-3.1,3.3
		c-0.1,1.1-0.1,2.2-0.1,3.2C-313.5-801.5-313.5-790.6-313.5-779.7z"/>
	<path d="M-428.4-829.9c1.1,0.1,2.2,0.2,3.3,0.4c4.6,0.7,8.8,2.3,12.2,5.7c3.3,3.4,5.1,7.6,5.1,12.3c0.1,8.4,0,16.8,0,25.2
		c0,0.2,0,0.4,0,0.6c-4.5,0-9.1,0-13.7,0c0-1.7,0-3.3,0-5c-0.2,0-0.2-0.1-0.3-0.1c-3.4,0-6.7,0-10.1,0c-2.5,0-4.1,1.3-5,3.7
		c-0.6,1.7-0.8,3.4-0.8,5.1c0,5.1,0,10.1,0,15.2c0,17.9,0,35.8,0,53.7c0,0.6,0.1,1.2,0.2,1.8c0.5,1.7,1.6,2.9,3.4,3.2
		c1.9,0.3,3.7-0.1,5-1.6c0.9-1.1,1.4-2.3,1.4-3.7c0-15.5,0-31.1,0-46.6c0-0.3,0-0.6,0-0.9c6.7,0,13.3,0,19.9,0c0,0.3,0,0.5,0,0.8
		c0,16,0,32,0,48c0,3.5-0.6,6.8-2.6,9.7c-2.4,3.5-5.8,5.4-9.7,6.4c-1.1,0.3-2.3,0.4-3.4,0.4c-6.4,0-12.9,0-19.3,0
		c-3.5,0-6.8-1-9.5-3.3c-3.2-2.6-5-6.1-5.9-10.2c-0.1-0.3-0.1-0.5-0.1-0.8c0-24.2,0-48.4,0-72.6c0-3.8,0.6-7.5,2.6-10.9
		c2.5-4.2,6.2-6.7,10.8-8.2c2.7-0.9,5.4-1.3,8.3-1.3c4.8,0,9.5,0,14.3,0c0.3,0,0.5,0,0.9,0c-0.1-2.1,0.3-4.3-0.6-6.3
		c-1.2-2.6-3.5-3.9-6.2-4.5c-1.3-0.3-2.7-0.4-4-0.4c-8.7,0-17.4,0-26,0c-0.3,0-0.6-0.1-0.8-0.1c0-5.2,0-10.5,0-15.8
		C-448.9-829.9-438.6-829.9-428.4-829.9z"/>
</g>
<g>
	<path class="st0" d="M-458.6-675.4v-8.4c0-0.9,0.2-1.6,0.7-2.1c0.5-0.5,1.2-0.7,2.1-0.7c0.9,0,1.6,0.2,2.1,0.7
		c0.5,0.5,0.7,1.2,0.7,2.1v3.7h-1.9v-3.8c0-0.4-0.1-0.7-0.2-0.8c-0.2-0.2-0.4-0.2-0.7-0.2c-0.3,0-0.5,0.1-0.7,0.2
		c-0.2,0.2-0.2,0.4-0.2,0.8v5.5h3.7v1.6h-3.7v1.5H-458.6z"/>
	<path class="st0" d="M-451.7-675.4v-8.4c0-0.9,0.2-1.6,0.7-2.1c0.5-0.5,1.2-0.7,2.1-0.7c0.9,0,1.6,0.2,2.1,0.7
		c0.5,0.5,0.7,1.2,0.7,2.1v8.4h-1.9v-8.5c0-0.4-0.1-0.7-0.2-0.8c-0.2-0.2-0.4-0.2-0.7-0.2c-0.3,0-0.5,0.1-0.7,0.2
		c-0.2,0.2-0.2,0.4-0.2,0.8v8.5H-451.7z"/>
	<path class="st0" d="M-444.9-675.4v-11.1h1.9v4.7h0.7v1.6h-0.7v4.7H-444.9z"/>
	<path class="st0" d="M-435.2-684.5v1.6h-0.7v4.9c0,0.9-0.2,1.6-0.7,2.1c-0.5,0.5-1.2,0.7-2.1,0.7c-0.9,0-1.6-0.2-2.1-0.7
		c-0.5-0.5-0.7-1.2-0.7-2.1v-3.7c0-0.9,0.2-1.6,0.7-2.1c0.5-0.5,1.2-0.7,2.1-0.7h0.1h0.8l0-2h1.9v2H-435.2z M-439.6-677.9
		c0,0.4,0.1,0.7,0.2,0.8c0.2,0.2,0.4,0.2,0.7,0.2c0.3,0,0.5-0.1,0.7-0.2c0.2-0.2,0.2-0.4,0.2-0.8v-3.9c0-0.4-0.1-0.7-0.2-0.8
		c-0.2-0.2-0.4-0.2-0.7-0.2c-0.3,0-0.5,0.1-0.7,0.2c-0.2,0.2-0.2,0.4-0.2,0.8V-677.9z"/>
	<path class="st0" d="M-430.1-675.6c-0.4,0.2-0.9,0.3-1.5,0.3c-0.9,0-1.6-0.2-2.1-0.7c-0.5-0.5-0.7-1.2-0.7-2.1v-8.4h1.9v8.5
		c0,0.4,0.1,0.7,0.2,0.8c0.2,0.2,0.4,0.2,0.7,0.2c0.3,0,0.5-0.1,0.7-0.2c0.2-0.2,0.2-0.4,0.2-0.8v-8.5h1.9v8.4
		c0,0.4-0.1,0.8-0.2,1.1l0.8,0.7l-1.3,1.2L-430.1-675.6z"/>
	<path class="st0" d="M-427.6-684.9v-1.6h5.6v1.6h-2.7c0.9,0,1.6,0.3,2,0.8c0.4,0.5,0.7,1.2,0.7,2h-1.9v-0.1c0-0.4-0.1-0.7-0.2-0.8
		c-0.2-0.2-0.4-0.2-0.7-0.2c-0.3,0-0.5,0.1-0.7,0.2c-0.2,0.2-0.2,0.4-0.2,0.8v4.3c0,0.4,0.1,0.7,0.2,0.8c0.2,0.2,0.4,0.2,0.7,0.2
		c0.3,0,0.5-0.1,0.7-0.2c0.2-0.2,0.2-0.4,0.2-0.8v-0.1c0,0,0.1,0,0.3,0c0.2,0,0.4,0,0.6,0h0.9c0,0.9-0.2,1.6-0.7,2.1
		c-0.5,0.5-1.2,0.7-2.1,0.7c-0.9,0-1.6-0.2-2.1-0.7c-0.5-0.5-0.7-1.2-0.7-2.1v-4c0-0.9,0.2-1.5,0.7-2c0.4-0.5,1.1-0.7,2-0.8H-427.6z
		"/>
	<path class="st0" d="M-418.9-684.4h2.7l0,4.9c0,0.4,0.1,0.7,0.3,0.8c0.2,0.2,0.4,0.2,0.7,0.2v-6h1.9v7.6h-1.9
		c-0.9,0-1.6-0.2-2.1-0.7c-0.5-0.5-0.7-1.2-0.7-2.1l0-3.2h-0.9l0,7.4h-1.9l0-11.1h1.9V-684.4z"/>
	<path class="st0" d="M-407.3-675.6c-0.4,0.2-0.9,0.3-1.5,0.3c-0.9,0-1.6-0.2-2.1-0.7c-0.5-0.5-0.7-1.2-0.7-2.1v-8.4h1.9v8.5
		c0,0.4,0.1,0.7,0.2,0.8c0.2,0.2,0.4,0.2,0.7,0.2c0.3,0,0.5-0.1,0.7-0.2c0.2-0.2,0.2-0.4,0.2-0.8v-8.5h1.9v8.4
		c0,0.4-0.1,0.8-0.2,1.1l0.8,0.7l-1.3,1.2L-407.3-675.6z"/>
	<path class="st0" d="M-405-683.8c0-0.9,0.2-1.6,0.7-2.1c0.5-0.5,1.2-0.7,2.1-0.7c0.9,0,1.6,0.2,2.1,0.7c0.5,0.5,0.7,1.2,0.7,2.1
		v0.3h-1.8v-0.5c0-0.4-0.1-0.7-0.2-0.8c-0.2-0.2-0.4-0.2-0.7-0.2s-0.5,0.1-0.7,0.2c-0.2,0.2-0.2,0.4-0.2,0.8c0,0.4,0.1,0.7,0.3,1
		c0.2,0.3,0.4,0.6,0.7,0.8c0.3,0.3,0.6,0.5,0.9,0.8c0.3,0.3,0.6,0.5,0.9,0.8c0.3,0.3,0.5,0.7,0.7,1c0.2,0.4,0.3,0.8,0.3,1.4
		c0,0.9-0.2,1.6-0.7,2.1c-0.5,0.5-1.2,0.7-2.1,0.7c-0.9,0-1.6-0.2-2.1-0.7c-0.5-0.5-0.7-1.2-0.7-2.1v-0.7h1.8v0.8
		c0,0.4,0.1,0.7,0.3,0.8c0.2,0.2,0.4,0.2,0.7,0.2c0.3,0,0.5-0.1,0.7-0.2c0.2-0.2,0.3-0.4,0.3-0.8c0-0.4-0.1-0.7-0.3-1
		c-0.2-0.3-0.4-0.6-0.7-0.8s-0.6-0.5-0.9-0.8c-0.3-0.3-0.6-0.5-0.9-0.8c-0.3-0.3-0.5-0.7-0.7-1C-404.9-682.8-405-683.3-405-683.8z"
		/>
	<path class="st0" d="M-398.4-675.4v-8.4c0-0.9,0.2-1.6,0.7-2.1c0.5-0.5,1.2-0.7,2.1-0.7c0.9,0,1.6,0.2,2.1,0.7
		c0.5,0.5,0.7,1.2,0.7,2.1v8.4h-1.9v-8.5c0-0.4-0.1-0.7-0.2-0.8c-0.2-0.2-0.4-0.2-0.7-0.2c-0.3,0-0.5,0.1-0.7,0.2
		c-0.2,0.2-0.2,0.4-0.2,0.8v8.5H-398.4z"/>
	<path class="st0" d="M-387.9-675.4v-8.5c0-0.4-0.1-0.7-0.2-0.8c-0.2-0.2-0.4-0.2-0.7-0.2c-0.3,0-0.5,0.1-0.7,0.2
		c-0.2,0.2-0.2,0.4-0.2,0.8v3.7h-1.9v-3.5c0-0.9,0.2-1.6,0.7-2.1c0.5-0.5,1.2-0.7,2.1-0.7c0.9,0,1.6,0.2,2.1,0.7
		c0.5,0.5,0.7,1.2,0.7,2.1v6.8h0.7v1.6H-387.9z"/>
	<path class="st0" d="M-382.4-686.5v8.5c0,0.4,0.1,0.7,0.2,0.8c0.2,0.2,0.4,0.2,0.7,0.2c0.3,0,0.5-0.1,0.7-0.2
		c0.2-0.2,0.2-0.4,0.2-0.8v-3.7h1.9v3.5c0,0.9-0.2,1.6-0.7,2.1c-0.5,0.5-1.2,0.7-2.1,0.7s-1.6-0.2-2.1-0.7c-0.5-0.5-0.7-1.2-0.7-2.1
		v-6.8h-0.7v-1.6H-382.4z"/>
	<path class="st0" d="M-375.6-683v5.1c0,0.4,0.1,0.7,0.2,0.8c0.2,0.2,0.4,0.2,0.7,0.2c0.3,0,0.5-0.1,0.7-0.2
		c0.2-0.2,0.2-0.4,0.2-0.8v-3.7h1.9v3.6c0,0.9-0.2,1.6-0.7,2.1c-0.5,0.5-1.2,0.7-2.1,0.7c-0.9,0-1.6-0.2-2.1-0.7
		c-0.5-0.5-0.7-1.2-0.7-2.1v-8.4h1.9v1.8h3.7v1.6H-375.6z"/>
	<path class="st0" d="M-370.7-675.4v-8.4c0-0.9,0.2-1.6,0.7-2.1c0.5-0.5,1.2-0.7,2.1-0.7c0.9,0,1.6,0.2,2.1,0.7
		c0.5,0.5,0.7,1.2,0.7,2.1v3.7h-1.9v-3.8c0-0.4-0.1-0.7-0.2-0.8c-0.2-0.2-0.4-0.2-0.7-0.2c-0.3,0-0.5,0.1-0.7,0.2
		c-0.2,0.2-0.2,0.4-0.2,0.8v8.5H-370.7z"/>
	<path class="st0" d="M-363.9-675.4v-11.1h1.9v1.7c0.1,0,0.3-0.1,0.4-0.1c0.2,0,0.3,0,0.5,0c0.9,0,1.6,0.2,2.1,0.7
		c0.5,0.5,0.7,1.2,0.7,2.1v4.6h-1.9v-4.7c0-0.4-0.1-0.7-0.2-0.8c-0.2-0.2-0.4-0.2-0.7-0.2c-0.3,0-0.5,0.1-0.7,0.2
		c-0.2,0.2-0.2,0.4-0.2,0.8v6.8H-363.9z"/>
	<path class="st0" d="M-354.4-684.9v-1.6h5.6v1.6h-2.7c0.9,0,1.6,0.3,2,0.8c0.4,0.5,0.7,1.2,0.7,2h-1.9v-0.1c0-0.4-0.1-0.7-0.2-0.8
		c-0.2-0.2-0.4-0.2-0.7-0.2c-0.3,0-0.5,0.1-0.7,0.2c-0.2,0.2-0.2,0.4-0.2,0.8v4.3c0,0.4,0.1,0.7,0.2,0.8c0.2,0.2,0.4,0.2,0.7,0.2
		c0.3,0,0.5-0.1,0.7-0.2c0.2-0.2,0.2-0.4,0.2-0.8v-0.1c0,0,0.1,0,0.3,0c0.2,0,0.4,0,0.6,0h0.9c0,0.9-0.2,1.6-0.7,2.1
		c-0.5,0.5-1.2,0.7-2.1,0.7c-0.9,0-1.6-0.2-2.1-0.7c-0.5-0.5-0.7-1.2-0.7-2.1v-4c0-0.9,0.2-1.5,0.7-2c0.4-0.5,1.1-0.7,2-0.8H-354.4z
		"/>
	<path class="st0" d="M-343.3-675.6c-0.4,0.2-0.9,0.3-1.5,0.3c-0.9,0-1.6-0.2-2.1-0.7c-0.5-0.5-0.7-1.2-0.7-2.1v-8.4h1.9v8.5
		c0,0.4,0.1,0.7,0.2,0.8c0.2,0.2,0.4,0.2,0.7,0.2c0.3,0,0.5-0.1,0.7-0.2c0.2-0.2,0.2-0.4,0.2-0.8v-8.5h1.9v8.4
		c0,0.4-0.1,0.8-0.2,1.1l0.8,0.7l-1.3,1.2L-343.3-675.6z"/>
	<path class="st0" d="M-340.8-675.4v-8.4c0-0.9,0.2-1.6,0.7-2.1c0.5-0.5,1.2-0.7,2.1-0.7c0.9,0,1.6,0.2,2.1,0.7
		c0.5,0.5,0.7,1.2,0.7,2.1v3.7h-1.9v-3.8c0-0.4-0.1-0.7-0.2-0.8c-0.2-0.2-0.4-0.2-0.7-0.2c-0.3,0-0.5,0.1-0.7,0.2
		c-0.2,0.2-0.2,0.4-0.2,0.8v8.5H-340.8z"/>
	<path class="st0" d="M-334-675.4v-8.4c0-0.9,0.2-1.6,0.7-2.1c0.5-0.5,1.2-0.7,2.1-0.7c0.9,0,1.6,0.2,2.1,0.7
		c0.5,0.5,0.7,1.2,0.7,2.1v8.4h-1.9v-8.5c0-0.4-0.1-0.7-0.2-0.8c-0.2-0.2-0.4-0.2-0.7-0.2c-0.3,0-0.5,0.1-0.7,0.2
		c-0.2,0.2-0.2,0.4-0.2,0.8v8.5H-334z"/>
	<path class="st0" d="M-327.2-675.4v-11.1h1.9v4.7h0.7v1.6h-0.7v4.7H-327.2z"/>
	<path class="st0" d="M-321.6-686.5v8.5c0,0.4,0.1,0.7,0.2,0.8c0.2,0.2,0.4,0.2,0.7,0.2c0.3,0,0.5-0.1,0.7-0.2
		c0.2-0.2,0.2-0.4,0.2-0.8v-3.7h1.9v3.5c0,0.9-0.2,1.6-0.7,2.1c-0.5,0.5-1.2,0.7-2.1,0.7c-0.9,0-1.6-0.2-2.1-0.7
		c-0.5-0.5-0.7-1.2-0.7-2.1v-6.8h-0.7v-1.6H-321.6z"/>
	<path class="st0" d="M-312.3-675.6c-0.4,0.2-0.9,0.3-1.5,0.3c-0.9,0-1.6-0.2-2.1-0.7c-0.5-0.5-0.7-1.2-0.7-2.1v-8.4h1.9v8.5
		c0,0.4,0.1,0.7,0.2,0.8c0.2,0.2,0.4,0.2,0.7,0.2c0.3,0,0.5-0.1,0.7-0.2c0.2-0.2,0.2-0.4,0.2-0.8v-8.5h1.9v8.4
		c0,0.4-0.1,0.8-0.2,1.1l0.8,0.7l-1.3,1.2L-312.3-675.6z"/>
	<path class="st0" d="M-304.3-684.1v8.8h-1.9v-1.5c-0.3,0.1-0.6,0.1-0.9,0.1c-0.9,0-1.6-0.2-2.1-0.7c-0.5-0.5-0.7-1.2-0.7-2.1v-6.9
		h1.9v7c0,0.4,0.1,0.7,0.2,0.8c0.2,0.2,0.4,0.2,0.7,0.2c0.3,0,0.5-0.1,0.7-0.2c0.2-0.2,0.2-0.4,0.2-0.8v-0.1l0-4.5H-304.3z"/>
	<path class="st0" d="M-298.7-675.6c-0.4,0.2-0.9,0.3-1.5,0.3c-0.9,0-1.6-0.2-2.1-0.7c-0.5-0.5-0.7-1.2-0.7-2.1v-8.4h1.9v8.5
		c0,0.4,0.1,0.7,0.2,0.8c0.2,0.2,0.4,0.2,0.7,0.2c0.3,0,0.5-0.1,0.7-0.2c0.2-0.2,0.2-0.4,0.2-0.8v-8.5h1.9v8.4
		c0,0.4-0.1,0.8-0.2,1.1l0.8,0.7l-1.3,1.2L-298.7-675.6z"/>
	<path class="st0" d="M-290.7-684.1v8.8h-1.9v-1.5c-0.3,0.1-0.6,0.1-0.9,0.1c-0.9,0-1.6-0.2-2.1-0.7c-0.5-0.5-0.7-1.2-0.7-2.1v-6.9
		h1.9v7c0,0.4,0.1,0.7,0.2,0.8c0.2,0.2,0.4,0.2,0.7,0.2c0.3,0,0.5-0.1,0.7-0.2c0.2-0.2,0.2-0.4,0.2-0.8v-0.1l0-4.5H-290.7z"/>
	<path class="st0" d="M-285.1-675.6c-0.4,0.2-0.9,0.3-1.5,0.3c-0.9,0-1.6-0.2-2.1-0.7c-0.5-0.5-0.7-1.2-0.7-2.1v-8.4h1.9v8.5
		c0,0.4,0.1,0.7,0.2,0.8c0.2,0.2,0.4,0.2,0.7,0.2c0.3,0,0.5-0.1,0.7-0.2c0.2-0.2,0.2-0.4,0.2-0.8v-8.5h1.9v8.4
		c0,0.4-0.1,0.8-0.2,1.1l0.8,0.7l-1.3,1.2L-285.1-675.6z"/>
	<path class="st0" d="M-280.4-686.5v8.5c0,0.4,0.1,0.7,0.2,0.8c0.2,0.2,0.4,0.2,0.7,0.2c0.3,0,0.5-0.1,0.7-0.2
		c0.2-0.2,0.2-0.4,0.2-0.8v-3.7h1.9v3.5c0,0.9-0.2,1.6-0.7,2.1c-0.5,0.5-1.2,0.7-2.1,0.7s-1.6-0.2-2.1-0.7c-0.5-0.5-0.7-1.2-0.7-2.1
		v-6.8h-0.7v-1.6H-280.4z"/>
	<path class="st0" d="M-456.6-671.6v8.5c0,0.4,0.1,0.7,0.2,0.8c0.1,0.2,0.4,0.2,0.6,0.2c0.3,0,0.5-0.1,0.6-0.2
		c0.1-0.2,0.2-0.4,0.2-0.8v-8.5h2.3v1.6h-0.6v6.8c0,0.9-0.2,1.6-0.7,2.1c-0.4,0.5-1.1,0.7-1.9,0.7c-0.9,0-1.5-0.2-1.9-0.7
		c-0.4-0.5-0.7-1.2-0.7-2.1v-8.4H-456.6z"/>
	<path class="st0" d="M-447.8-660.7c-0.4,0.2-0.9,0.3-1.4,0.3c-0.9,0-1.5-0.2-1.9-0.7c-0.4-0.5-0.7-1.2-0.7-2.1v-8.4h1.7v8.6
		c0,0.4,0.1,0.7,0.2,0.8c0.1,0.2,0.4,0.2,0.6,0.2c0.3,0,0.5-0.1,0.6-0.2c0.1-0.2,0.2-0.4,0.2-0.8v-8.6h1.7v8.4c0,0.4,0,0.8-0.1,1.1
		l0.7,0.7l-1.2,1.2L-447.8-660.7z"/>
	<path class="st0" d="M-443.7-671.6v8.6c0,0.4,0.1,0.7,0.2,0.8c0.1,0.2,0.4,0.2,0.6,0.2c0.3,0,0.5-0.1,0.6-0.2
		c0.1-0.2,0.2-0.4,0.2-0.8v-8.6h1.7v8.4c0,0.9-0.2,1.6-0.7,2.1c-0.4,0.5-1.1,0.7-1.9,0.7s-1.5-0.2-1.9-0.7c-0.4-0.5-0.7-1.2-0.7-2.1
		v-8.4H-443.7z"/>
	<path class="st0" d="M-437.2-671.6v8.6c0,0.4,0.1,0.7,0.2,0.8c0.1,0.2,0.4,0.2,0.6,0.2c0.3,0,0.5-0.1,0.6-0.2
		c0.1-0.2,0.2-0.4,0.2-0.8v-3.7h1.7v3.5c0,0.9-0.2,1.6-0.7,2.1c-0.4,0.5-1.1,0.7-1.9,0.7c-0.9,0-1.5-0.2-1.9-0.7
		c-0.4-0.5-0.7-1.2-0.7-2.1v-6.8h-0.6v-1.6H-437.2z"/>
	<path class="st0" d="M-428.6-660.7c-0.4,0.2-0.9,0.3-1.4,0.3c-0.9,0-1.5-0.2-1.9-0.7c-0.4-0.5-0.7-1.2-0.7-2.1v-8.4h1.7v8.6
		c0,0.4,0.1,0.7,0.2,0.8c0.1,0.2,0.4,0.2,0.6,0.2s0.5-0.1,0.6-0.2c0.1-0.2,0.2-0.4,0.2-0.8v-8.6h1.7v8.4c0,0.4,0,0.8-0.1,1.1
		l0.7,0.7l-1.2,1.2L-428.6-660.7z"/>
	<path class="st0" d="M-421.1-662v1.5h-1.7l0-1.5h-0.8c-0.9,0-1.5-0.2-1.9-0.7c-0.4-0.5-0.7-1.2-0.7-2.1v-4.2c0-0.9,0.2-1.6,0.7-2.1
		c0.4-0.5,1.1-0.7,1.9-0.7c0.9,0,1.5,0.2,1.9,0.7c0.4,0.5,0.7,1.2,0.7,2.1v5.4h0.6v1.6H-421.1z M-424.5-664.7c0,0.4,0.1,0.7,0.2,0.8
		c0.1,0.2,0.4,0.2,0.6,0.2c0.3,0,0.5-0.1,0.6-0.2c0.1-0.2,0.2-0.4,0.2-0.8v-4.4c0-0.4-0.1-0.7-0.2-0.8s-0.4-0.2-0.6-0.2
		c-0.3,0-0.5,0.1-0.6,0.2c-0.1,0.2-0.2,0.4-0.2,0.8V-664.7z"/>
	<path class="st0" d="M-419.7-660.6v-11.1h1.7v1.7c0.1,0,0.3-0.1,0.4-0.1c0.1,0,0.3,0,0.5,0c0.9,0,1.5,0.2,1.9,0.7
		c0.4,0.5,0.7,1.2,0.7,2.1v4.6h-1.7v-4.7c0-0.4-0.1-0.7-0.2-0.8c-0.1-0.2-0.4-0.2-0.6-0.2s-0.5,0.1-0.6,0.2
		c-0.1,0.2-0.2,0.4-0.2,0.8v6.8H-419.7z"/>
	<path class="st0" d="M-413.6-669c0-0.9,0.2-1.6,0.6-2.1c0.4-0.5,1.1-0.7,1.9-0.7c0.9,0,1.5,0.2,1.9,0.7c0.4,0.5,0.6,1.2,0.6,2.1
		v0.3h-1.6v-0.5c0-0.4-0.1-0.7-0.2-0.8c-0.2-0.2-0.4-0.2-0.6-0.2s-0.5,0.1-0.6,0.2c-0.2,0.2-0.2,0.4-0.2,0.8c0,0.4,0.1,0.7,0.3,1
		c0.2,0.3,0.4,0.6,0.6,0.8c0.3,0.3,0.5,0.5,0.8,0.8c0.3,0.3,0.6,0.5,0.8,0.8c0.3,0.3,0.5,0.7,0.6,1c0.2,0.4,0.3,0.8,0.3,1.4
		c0,0.9-0.2,1.6-0.7,2.1c-0.4,0.5-1.1,0.7-1.9,0.7c-0.9,0-1.5-0.2-1.9-0.7c-0.4-0.5-0.7-1.2-0.7-2.1v-0.7h1.6v0.8
		c0,0.4,0.1,0.7,0.2,0.8c0.2,0.2,0.4,0.2,0.7,0.2c0.3,0,0.5-0.1,0.7-0.2c0.2-0.2,0.2-0.4,0.2-0.8c0-0.4-0.1-0.7-0.3-1
		c-0.2-0.3-0.4-0.6-0.6-0.8s-0.5-0.5-0.8-0.8c-0.3-0.3-0.6-0.5-0.8-0.8c-0.3-0.3-0.5-0.7-0.6-1C-413.5-668-413.6-668.4-413.6-669z"
		/>
	<path class="st0" d="M-403.5-660.7c-0.4,0.2-0.9,0.3-1.4,0.3c-0.9,0-1.5-0.2-1.9-0.7c-0.4-0.5-0.7-1.2-0.7-2.1v-8.4h1.7v8.6
		c0,0.4,0.1,0.7,0.2,0.8c0.1,0.2,0.4,0.2,0.6,0.2c0.3,0,0.5-0.1,0.6-0.2c0.1-0.2,0.2-0.4,0.2-0.8v-8.6h1.7v8.4c0,0.4,0,0.8-0.1,1.1
		l0.7,0.7l-1.2,1.2L-403.5-660.7z"/>
	<path class="st0" d="M-396.1-669.3v8.8h-1.7v-1.5c-0.3,0.1-0.5,0.1-0.9,0.1c-0.9,0-1.5-0.2-1.9-0.7c-0.4-0.5-0.7-1.2-0.7-2.1v-6.9
		h1.7v7c0,0.4,0.1,0.7,0.2,0.8c0.1,0.2,0.4,0.2,0.6,0.2s0.5-0.1,0.6-0.2c0.1-0.2,0.2-0.4,0.2-0.8v-0.1l0-4.5H-396.1z"/>
	<path class="st0" d="M-390.9-660.7c-0.4,0.2-0.9,0.3-1.4,0.3c-0.9,0-1.5-0.2-1.9-0.7c-0.4-0.5-0.7-1.2-0.7-2.1v-8.4h1.7v8.6
		c0,0.4,0.1,0.7,0.2,0.8c0.1,0.2,0.4,0.2,0.6,0.2c0.3,0,0.5-0.1,0.6-0.2c0.1-0.2,0.2-0.4,0.2-0.8v-8.6h1.7v8.4c0,0.4,0,0.8-0.1,1.1
		l0.7,0.7l-1.2,1.2L-390.9-660.7z"/>
	<path class="st0" d="M-386.6-671.6v8.6c0,0.4,0.1,0.7,0.2,0.8c0.1,0.2,0.4,0.2,0.6,0.2c0.3,0,0.5-0.1,0.6-0.2
		c0.1-0.2,0.2-0.4,0.2-0.8v-3.7h1.7v3.5c0,0.9-0.2,1.6-0.7,2.1c-0.4,0.5-1.1,0.7-1.9,0.7c-0.9,0-1.5-0.2-1.9-0.7
		c-0.4-0.5-0.7-1.2-0.7-2.1v-6.8h-0.6v-1.6H-386.6z"/>
	<path class="st0" d="M-374.4-663.8c0,0.6-0.2,1.1-0.5,1.6h0.5v1.6h-5.2v-2.4h1.7v0.8c0.1,0,0.3,0,0.5-0.1c0.2-0.1,0.4-0.2,0.6-0.3
		c0.2-0.1,0.3-0.3,0.5-0.5c0.1-0.2,0.2-0.4,0.2-0.6c-0.3,0.1-0.5,0.1-0.9,0.1c-0.9,0-1.5-0.2-1.9-0.7c-0.4-0.5-0.7-1.2-0.7-2.1v-2.6
		c0-0.9,0.2-1.6,0.7-2.1c0.4-0.5,1.1-0.7,1.9-0.7s1.5,0.2,1.9,0.7c0.4,0.5,0.7,1.2,0.7,2.1V-663.8z M-377.9-666.2
		c0,0.4,0.1,0.7,0.2,0.8c0.1,0.2,0.4,0.2,0.6,0.2s0.5-0.1,0.6-0.2c0.1-0.2,0.2-0.4,0.2-0.8v-2.9c0-0.4-0.1-0.7-0.2-0.8
		s-0.4-0.2-0.6-0.2s-0.5,0.1-0.6,0.2c-0.1,0.2-0.2,0.4-0.2,0.8V-666.2z"/>
	<path class="st0" d="M-369-660.7c-0.4,0.2-0.9,0.3-1.4,0.3c-0.9,0-1.5-0.2-1.9-0.7c-0.4-0.5-0.7-1.2-0.7-2.1v-8.4h1.7v8.6
		c0,0.4,0.1,0.7,0.2,0.8c0.1,0.2,0.4,0.2,0.6,0.2c0.3,0,0.5-0.1,0.6-0.2c0.1-0.2,0.2-0.4,0.2-0.8v-8.6h1.7v8.4c0,0.4,0,0.8-0.1,1.1
		l0.7,0.7l-1.2,1.2L-369-660.7z"/>
	<path class="st0" d="M-366.8-660.5v-8.4c0-0.9,0.2-1.6,0.7-2.1c0.4-0.5,1.1-0.7,1.9-0.7s1.5,0.2,1.9,0.7c0.4,0.5,0.7,1.2,0.7,2.1
		v3.7h-1.7v-3.8c0-0.4-0.1-0.7-0.2-0.8s-0.4-0.2-0.6-0.2s-0.5,0.1-0.6,0.2c-0.1,0.2-0.2,0.4-0.2,0.8v8.5H-366.8z"/>
	<path class="st0" d="M-355.3-662v1.5h-1.7l0-1.5h-0.8c-0.9,0-1.5-0.2-1.9-0.7c-0.4-0.5-0.7-1.2-0.7-2.1v-4.2c0-0.9,0.2-1.6,0.7-2.1
		c0.4-0.5,1.1-0.7,1.9-0.7s1.5,0.2,1.9,0.7c0.4,0.5,0.7,1.2,0.7,2.1v5.4h0.6v1.6H-355.3z M-358.7-664.7c0,0.4,0.1,0.7,0.2,0.8
		c0.1,0.2,0.4,0.2,0.6,0.2s0.5-0.1,0.6-0.2c0.1-0.2,0.2-0.4,0.2-0.8v-4.4c0-0.4-0.1-0.7-0.2-0.8s-0.4-0.2-0.6-0.2s-0.5,0.1-0.6,0.2
		c-0.1,0.2-0.2,0.4-0.2,0.8V-664.7z"/>
	<path class="st0" d="M-349.9-660.7c-0.4,0.2-0.9,0.3-1.4,0.3c-0.9,0-1.5-0.2-1.9-0.7c-0.4-0.5-0.7-1.2-0.7-2.1v-8.4h1.7v8.6
		c0,0.4,0.1,0.7,0.2,0.8c0.1,0.2,0.4,0.2,0.6,0.2c0.3,0,0.5-0.1,0.6-0.2c0.1-0.2,0.2-0.4,0.2-0.8v-8.6h1.7v8.4c0,0.4,0,0.8-0.1,1.1
		l0.7,0.7l-1.2,1.2L-349.9-660.7z"/>
	<path class="st0" d="M-345.9-663.2v0.1c0,0.4,0.1,0.7,0.2,0.8c0.1,0.2,0.4,0.2,0.6,0.2s0.5-0.1,0.6-0.2c0.1-0.2,0.2-0.4,0.2-0.8
		v-2.2c0-0.4-0.1-0.7-0.2-0.8c-0.1-0.2-0.4-0.2-0.6-0.2h-0.1c-0.3,0-0.4,0.1-0.6,0.3c-0.1,0.2-0.2,0.4-0.2,0.8v0.1h-1.7
		c0-0.9,0.2-1.5,0.6-2c-0.4-0.5-0.5-1.1-0.5-1.9v0.1v-0.1v0v0c0-0.9,0.3-1.5,0.7-2c0.4-0.5,1-0.7,1.8-0.7c0.8,0,1.4,0.2,1.8,0.7
		c0.4,0.5,0.7,1.1,0.7,2c0,0.8-0.2,1.4-0.5,1.8c0.4,0.5,0.6,1.1,0.6,2v2c0,0.9-0.2,1.6-0.7,2.1c-0.4,0.5-1.1,0.7-1.9,0.7
		s-1.5-0.2-1.9-0.7c-0.4-0.5-0.7-1.2-0.7-2.1H-345.9z M-345.9-669.1c0,0.4,0.1,0.7,0.2,0.8c0.1,0.2,0.3,0.3,0.6,0.3h0.1h0.1
		c0.2,0,0.4-0.1,0.6-0.3c0.1-0.2,0.2-0.4,0.2-0.8c0-0.4-0.1-0.7-0.2-0.8c-0.1-0.2-0.4-0.2-0.6-0.2s-0.5,0.1-0.6,0.2
		C-345.8-669.7-345.9-669.5-345.9-669.1z"/>
	<path class="st0" d="M-339.3-671.6v8.5c0,0.4,0.1,0.7,0.2,0.8c0.1,0.2,0.4,0.2,0.6,0.2c0.3,0,0.5-0.1,0.6-0.2
		c0.1-0.2,0.2-0.4,0.2-0.8v-8.5h2.3v1.6h-0.6v6.8c0,0.9-0.2,1.6-0.7,2.1c-0.4,0.5-1.1,0.7-1.9,0.7c-0.9,0-1.5-0.2-1.9-0.7
		c-0.4-0.5-0.7-1.2-0.7-2.1v-8.4H-339.3z"/>
	<path class="st0" d="M-330.4-660.7c-0.4,0.2-0.9,0.3-1.4,0.3c-0.9,0-1.5-0.2-1.9-0.7c-0.4-0.5-0.7-1.2-0.7-2.1v-8.4h1.7v8.6
		c0,0.4,0.1,0.7,0.2,0.8c0.1,0.2,0.4,0.2,0.6,0.2s0.5-0.1,0.6-0.2c0.1-0.2,0.2-0.4,0.2-0.8v-8.6h1.7v8.4c0,0.4,0,0.8-0.1,1.1
		l0.7,0.7l-1.2,1.2L-330.4-660.7z"/>
	<path class="st0" d="M-326.1-671.6v8.6c0,0.4,0.1,0.7,0.2,0.8c0.1,0.2,0.4,0.2,0.6,0.2c0.3,0,0.5-0.1,0.6-0.2
		c0.1-0.2,0.2-0.4,0.2-0.8v-3.7h1.7v3.5c0,0.9-0.2,1.6-0.7,2.1c-0.4,0.5-1.1,0.7-1.9,0.7c-0.9,0-1.5-0.2-1.9-0.7
		c-0.4-0.5-0.7-1.2-0.7-2.1v-6.8h-0.6v-1.6H-326.1z"/>
	<path class="st0" d="M-314-669.3v8.8h-1.7v-1.5c-0.3,0.1-0.5,0.1-0.9,0.1c-0.9,0-1.5-0.2-1.9-0.7c-0.4-0.5-0.7-1.2-0.7-2.1v-6.9
		h1.7v7c0,0.4,0.1,0.7,0.2,0.8c0.1,0.2,0.4,0.2,0.6,0.2s0.5-0.1,0.6-0.2c0.1-0.2,0.2-0.4,0.2-0.8v-0.1l0-4.5H-314z"/>
	<path class="st0" d="M-311.1-668.2v5.1c0,0.4,0.1,0.7,0.2,0.8c0.1,0.2,0.4,0.2,0.6,0.2c0.3,0,0.5-0.1,0.6-0.2s0.2-0.4,0.2-0.8v-3.7
		h1.7v3.6c0,0.9-0.2,1.6-0.7,2.1c-0.4,0.5-1.1,0.7-1.9,0.7c-0.9,0-1.5-0.2-1.9-0.7c-0.4-0.5-0.7-1.2-0.7-2.1v-8.4h1.7v1.8h3.4v1.6
		H-311.1z"/>
	<path class="st0" d="M-304.5-671.6v8.6c0,0.4,0.1,0.7,0.2,0.8c0.1,0.2,0.4,0.2,0.6,0.2c0.3,0,0.5-0.1,0.6-0.2
		c0.1-0.2,0.2-0.4,0.2-0.8v-3.7h1.7v3.5c0,0.9-0.2,1.6-0.7,2.1c-0.4,0.5-1.1,0.7-1.9,0.7c-0.9,0-1.5-0.2-1.9-0.7
		c-0.4-0.5-0.7-1.2-0.7-2.1v-6.8h-0.6v-1.6H-304.5z"/>
	<path class="st0" d="M-300.1-669c0-0.9,0.2-1.6,0.6-2.1c0.4-0.5,1.1-0.7,1.9-0.7c0.9,0,1.5,0.2,1.9,0.7c0.4,0.5,0.6,1.2,0.6,2.1
		v0.3h-1.6v-0.5c0-0.4-0.1-0.7-0.2-0.8c-0.2-0.2-0.4-0.2-0.6-0.2s-0.5,0.1-0.6,0.2c-0.2,0.2-0.2,0.4-0.2,0.8c0,0.4,0.1,0.7,0.3,1
		c0.2,0.3,0.4,0.6,0.6,0.8c0.3,0.3,0.5,0.5,0.8,0.8c0.3,0.3,0.6,0.5,0.8,0.8c0.3,0.3,0.5,0.7,0.6,1c0.2,0.4,0.3,0.8,0.3,1.4
		c0,0.9-0.2,1.6-0.7,2.1c-0.4,0.5-1.1,0.7-1.9,0.7c-0.9,0-1.5-0.2-1.9-0.7c-0.4-0.5-0.7-1.2-0.7-2.1v-0.7h1.6v0.8
		c0,0.4,0.1,0.7,0.2,0.8s0.4,0.2,0.7,0.2c0.3,0,0.5-0.1,0.7-0.2c0.2-0.2,0.2-0.4,0.2-0.8c0-0.4-0.1-0.7-0.3-1
		c-0.2-0.3-0.4-0.6-0.6-0.8c-0.3-0.3-0.5-0.5-0.8-0.8c-0.3-0.3-0.6-0.5-0.8-0.8c-0.3-0.3-0.5-0.7-0.6-1
		C-300-668-300.1-668.4-300.1-669z"/>
	<path class="st0" d="M-294.1-660.5v-8.4c0-0.9,0.2-1.6,0.7-2.1c0.4-0.5,1.1-0.7,1.9-0.7s1.5,0.2,1.9,0.7c0.4,0.5,0.7,1.2,0.7,2.1
		v3.7h-1.7v-3.8c0-0.4-0.1-0.7-0.2-0.8s-0.4-0.2-0.6-0.2s-0.5,0.1-0.6,0.2c-0.1,0.2-0.2,0.4-0.2,0.8v8.5H-294.1z"/>
	<path class="st0" d="M-287.8-660.6v-8.4c0-0.9,0.2-1.6,0.7-2.1c0.4-0.5,1.1-0.7,1.9-0.7s1.5,0.2,1.9,0.7c0.4,0.5,0.7,1.2,0.7,2.1
		v8.4h-1.7v-8.5c0-0.4-0.1-0.7-0.2-0.8c-0.1-0.2-0.4-0.2-0.6-0.2c-0.3,0-0.5,0.1-0.6,0.2c-0.1,0.2-0.2,0.4-0.2,0.8v8.5H-287.8z"/>
	<path class="st0" d="M-279.4-671.6v8.6c0,0.4,0.1,0.7,0.2,0.8c0.1,0.2,0.4,0.2,0.6,0.2c0.3,0,0.5-0.1,0.6-0.2
		c0.1-0.2,0.2-0.4,0.2-0.8v-3.7h1.7v3.5c0,0.9-0.2,1.6-0.7,2.1c-0.4,0.5-1.1,0.7-1.9,0.7c-0.9,0-1.5-0.2-1.9-0.7
		c-0.4-0.5-0.7-1.2-0.7-2.1v-6.8h-0.6v-1.6H-279.4z"/>
</g>
</svg>
